<svg width="24" height="18" viewBox="0 0 24 18" fill="none" xmlns="http://www.w3.org/2000/svg">
<g id="eye">
<path id="Vector" d="M11.7449 12.2727C12.6129 12.2727 13.4453 11.9279 14.0591 11.3142C14.6728 10.7004 15.0176 9.868 15.0176 9.00002C15.0176 8.13204 14.6728 7.29961 14.0591 6.68585C13.4453 6.0721 12.6129 5.72729 11.7449 5.72729C10.8769 5.72729 10.0445 6.0721 9.43073 6.68585C8.81697 7.29961 8.47217 8.13204 8.47217 9.00002C8.47217 9.868 8.81697 10.7004 9.43073 11.3142C10.0445 11.9279 10.8769 12.2727 11.7449 12.2727Z" fill="#9747FF"/>
<path id="Vector_2" fill-rule="evenodd" clip-rule="evenodd" d="M0.0972971 8.39673C1.72057 3.51927 6.32093 0 11.746 0C17.1678 0 21.766 3.516 23.3915 8.38909C23.5224 8.784 23.5224 9.20946 23.3915 9.60327C21.7693 14.4807 17.1678 18 11.7438 18C6.32202 18 1.72275 14.484 0.0983881 9.61091C-0.032796 9.21681 -0.032796 8.79082 0.0983881 8.39673M17.4722 9C17.4722 10.519 16.8688 11.9757 15.7947 13.0498C14.7207 14.1239 13.2639 14.7273 11.7449 14.7273C10.226 14.7273 8.76921 14.1239 7.69514 13.0498C6.62107 11.9757 6.01766 10.519 6.01766 9C6.01766 7.48103 6.62107 6.02428 7.69514 4.95021C8.76921 3.87613 10.226 3.27273 11.7449 3.27273C13.2639 3.27273 14.7207 3.87613 15.7947 4.95021C16.8688 6.02428 17.4722 7.48103 17.4722 9Z" fill="#9747FF"/>
</g>
</svg>
