<svg width="22" height="15" viewBox="0 0 22 15" fill="none" xmlns="http://www.w3.org/2000/svg">
<g id="Group">
<path id="Vector" opacity="0.2" d="M20.8625 5C19.1115 7.16771 15.9011 10 10.8625 10C5.82401 10 2.61359 7.16771 0.862549 5C2.61359 2.83229 5.82401 0 10.8625 0C15.9011 0 19.1115 2.83229 20.8625 5Z" fill="#AAAAAA"/>
<path id="Vector_2" d="M21.2792 12.3958C21.1841 12.4501 21.0791 12.4851 20.9704 12.4987C20.8617 12.5124 20.7513 12.5045 20.6457 12.4755C20.54 12.4465 20.4411 12.3969 20.3547 12.3296C20.2682 12.2623 20.1958 12.1786 20.1417 12.0833L18.1626 8.62499C17.0119 9.40299 15.7427 9.98908 14.4042 10.3604L15.0157 14.0292C15.0337 14.1372 15.0303 14.2477 15.0056 14.3543C14.9809 14.461 14.9355 14.5618 14.8718 14.6509C14.8082 14.74 14.7276 14.8157 14.6347 14.8736C14.5417 14.9315 14.4383 14.9706 14.3303 14.9885C14.2859 14.9958 14.2409 14.9996 14.1959 15C13.9988 14.9997 13.8081 14.9295 13.6578 14.8019C13.5075 14.6743 13.4074 14.4976 13.3751 14.3031L12.774 10.701C11.5065 10.8774 10.2207 10.8774 8.9532 10.701L8.35216 14.3031C8.31982 14.498 8.21933 14.675 8.06861 14.8026C7.9179 14.9302 7.72674 15.0002 7.52924 15C7.48318 14.9998 7.4372 14.996 7.39174 14.9885C7.28372 14.9706 7.1803 14.9315 7.08738 14.8736C6.99446 14.8157 6.91387 14.74 6.85021 14.6509C6.78656 14.5618 6.74108 14.461 6.7164 14.3543C6.69171 14.2477 6.68829 14.1372 6.70633 14.0292L7.32091 10.3604C5.98302 9.98791 4.71445 9.40076 3.56466 8.62187L1.59174 12.0833C1.53703 12.1787 1.46407 12.2623 1.37703 12.3295C1.28999 12.3966 1.19057 12.4459 1.08446 12.4747C0.978353 12.5034 0.867623 12.511 0.758597 12.4969C0.64957 12.4828 0.544381 12.4474 0.449036 12.3927C0.35369 12.338 0.270056 12.265 0.202908 12.178C0.13576 12.0909 0.0864136 11.9915 0.0576854 11.8854C0.0289573 11.7793 0.0214104 11.6686 0.0354757 11.5596C0.0495411 11.4505 0.084943 11.3453 0.13966 11.25L2.22299 7.60416C1.49122 6.97195 0.818325 6.27465 0.212577 5.52082C0.137034 5.43648 0.0794727 5.33762 0.043406 5.23029C0.00733915 5.12296 -0.00647628 5.0094 0.00280326 4.89656C0.0120828 4.78371 0.0442626 4.67394 0.0973782 4.57394C0.150494 4.47394 0.223431 4.38581 0.311737 4.31494C0.400044 4.24407 0.501867 4.19194 0.610991 4.16173C0.720116 4.13152 0.834252 4.12386 0.946434 4.13923C1.05862 4.1546 1.16649 4.19266 1.26347 4.25111C1.36045 4.30955 1.4445 4.38715 1.51049 4.47916C3.23966 6.61874 6.26466 9.16666 10.8626 9.16666C15.4605 9.16666 18.4855 6.61562 20.2147 4.47916C20.2799 4.38527 20.3638 4.3058 20.461 4.24571C20.5583 4.18562 20.6669 4.14619 20.7801 4.12987C20.8932 4.11355 21.0085 4.12069 21.1188 4.15085C21.2291 4.18101 21.332 4.23354 21.4211 4.30517C21.5102 4.3768 21.5836 4.46601 21.6368 4.56723C21.69 4.66846 21.7217 4.77954 21.7301 4.89357C21.7385 5.00759 21.7233 5.12212 21.6855 5.23003C21.6478 5.33795 21.5882 5.43693 21.5105 5.52082C20.9047 6.27465 20.2318 6.97195 19.5001 7.60416L21.5834 11.25C21.6393 11.345 21.6758 11.4502 21.6908 11.5595C21.7058 11.6687 21.6989 11.7799 21.6706 11.8864C21.6424 11.993 21.5932 12.0929 21.526 12.1804C21.4588 12.2678 21.3749 12.341 21.2792 12.3958Z" fill="black"/>
</g>
</svg>
