<svg width="18" height="18" viewBox="0 0 18 18" fill="none" xmlns="http://www.w3.org/2000/svg">
<path d="M1.5 7.33333H16.5M6.5 3.16667H4.16667C3.23325 3.16667 2.76654 3.16667 2.41002 3.34832C2.09641 3.50811 1.84144 3.76308 1.68166 4.07668C1.5 4.4332 1.5 4.89991 1.5 5.83333V13.8333C1.5 14.7668 1.5 15.2335 1.68166 15.59C1.84144 15.9036 2.09641 16.1586 2.41002 16.3183C2.76654 16.5 3.23325 16.5 4.16667 16.5H13.8333C14.7668 16.5 15.2335 16.5 15.59 16.3183C15.9036 16.1586 16.1586 15.9036 16.3183 15.59C16.5 15.2335 16.5 14.7668 16.5 13.8333V5.83333C16.5 4.89991 16.5 4.4332 16.3183 4.07668C16.1586 3.76308 15.9036 3.50811 15.59 3.34832C15.2335 3.16667 14.7668 3.16667 13.8333 3.16667H11.5M6.5 3.16667H11.5M6.5 3.16667V2.75C6.5 2.05964 5.94036 1.5 5.25 1.5C4.55964 1.5 4 2.05964 4 2.75V3.16667M11.5 3.16667V2.75C11.5 2.05964 12.0596 1.5 12.75 1.5C13.4404 1.5 14 2.05964 14 2.75V3.16667" stroke="#F58D56" stroke-width="1.5" stroke-linecap="round"/>
</svg>
