<svg width="23" height="25" viewBox="0 0 23 25" fill="none" xmlns="http://www.w3.org/2000/svg">
<path d="M15.8125 21.2344L13.9509 19.2109L12.9375 20.3125L15.8125 23.4375L21.5625 17.1875L20.5491 16.0859L15.8125 21.2344ZM6.46875 13.2812H11.5V14.8438H6.46875V13.2812ZM6.46875 9.375H15.0938V10.9375H6.46875V9.375ZM6.46875 5.46875H15.0938V7.03125H6.46875V5.46875Z" fill="black"/>
<path d="M11.5 23.4375H4.3125C3.51972 23.4375 2.875 22.7367 2.875 21.875V3.125C2.875 2.26328 3.51972 1.5625 4.3125 1.5625H17.25C18.0428 1.5625 18.6875 2.26328 18.6875 3.125V14.8438H17.25V3.125H4.3125V21.875H11.5V23.4375Z" fill="black"/>
</svg>
