<svg width="15" height="18" viewBox="0 0 15 18" fill="none" xmlns="http://www.w3.org/2000/svg">
<path d="M2.50016 4.83333H1.66683C1.20659 4.83333 0.833496 5.20643 0.833496 5.66667C0.833496 6.1269 1.20659 6.5 1.66683 6.5H2.50016M2.50016 11.5H1.66683C1.20659 11.5 0.833496 11.8731 0.833496 12.3333C0.833496 12.7936 1.20659 13.1667 1.66683 13.1667H2.50016M14.1668 14.1033C13.0296 12.0538 10.8435 10.6667 8.3335 10.6667C5.82347 10.6667 3.63744 12.0538 2.50016 14.1033M5.16683 16.5H11.5002C12.4336 16.5 12.9003 16.5 13.2568 16.3183C13.5704 16.1586 13.8254 15.9036 13.9852 15.59C14.1668 15.2335 14.1668 14.7668 14.1668 13.8333V4.16667C14.1668 3.23325 14.1668 2.76654 13.9852 2.41002C13.8254 2.09641 13.5704 1.84144 13.2568 1.68166C12.9003 1.5 12.4336 1.5 11.5002 1.5H5.16683C4.23341 1.5 3.7667 1.5 3.41018 1.68166C3.09658 1.84144 2.84161 2.09641 2.68182 2.41002C2.50016 2.76654 2.50016 3.23325 2.50016 4.16667V13.8333C2.50016 14.7668 2.50016 15.2335 2.68182 15.59C2.84161 15.9036 3.09658 16.1586 3.41018 16.3183C3.7667 16.5 4.23341 16.5 5.16683 16.5ZM10.8648 7.36473C10.8648 8.76278 9.73146 9.89613 8.33341 9.89613C6.93536 9.89613 5.80201 8.76278 5.80201 7.36473C5.80201 5.96668 6.93536 4.83333 8.33341 4.83333C9.73146 4.83333 10.8648 5.96668 10.8648 7.36473Z" stroke="#F58D56" stroke-width="1.67"/>
</svg>
