<svg width="18" height="22" viewBox="0 0 18 22" fill="none" xmlns="http://www.w3.org/2000/svg">
<path d="M13.8 17C14.9201 17 15.4802 17 15.908 16.782C16.2843 16.5903 16.5903 16.2843 16.782 15.908C17 15.4802 17 14.9201 17 13.8V4.2C17 3.0799 17 2.51984 16.782 2.09202C16.5903 1.71569 16.2843 1.40973 15.908 1.21799C15.4802 1 14.9201 1 13.8 1H8.2C7.0799 1 6.51984 1 6.09202 1.21799C5.71569 1.40973 5.40973 1.71569 5.21799 2.09202C5 2.51984 5 3.07989 5 4.2M4.2 21H9.8C10.9201 21 11.4802 21 11.908 20.782C12.2843 20.5903 12.5903 20.2843 12.782 19.908C13 19.4802 13 18.9201 13 17.8V8.2C13 7.07989 13 6.51984 12.782 6.09202C12.5903 5.71569 12.2843 5.40973 11.908 5.21799C11.4802 5 10.9201 5 9.8 5H4.2C3.0799 5 2.51984 5 2.09202 5.21799C1.71569 5.40973 1.40973 5.71569 1.21799 6.09202C1 6.51984 1 7.07989 1 8.2V17.8C1 18.9201 1 19.4802 1.21799 19.908C1.40973 20.2843 1.71569 20.5903 2.09202 20.782C2.51984 21 3.07989 21 4.2 21Z" stroke="#919BA7" stroke-width="2"/>
</svg>
