<svg width="23" height="23" viewBox="0 0 23 23" fill="none" xmlns="http://www.w3.org/2000/svg">
<g id="google">
<path id="vector" d="M21.3629 11.7602C21.3629 10.9405 21.2951 10.3424 21.1482 9.72211H11.5975V13.4216H17.2035C17.0906 14.341 16.4802 15.7256 15.1239 16.656L15.1049 16.7798L18.1246 19.0724L18.3338 19.0929C20.2552 17.3538 21.3629 14.7951 21.3629 11.7602Z" fill="#4285F4"/>
<path id="vector_2" d="M11.5969 21.5077C14.3433 21.5077 16.649 20.6215 18.3332 19.093L15.1232 16.656C14.2643 17.2431 13.1114 17.6529 11.5969 17.6529C8.90686 17.6529 6.62376 15.914 5.8099 13.5103L5.69061 13.5202L2.55063 15.9017L2.50957 16.0136C4.18233 19.2701 7.61832 21.5077 11.5969 21.5077Z" fill="#34A853"/>
<path id="vector_3" d="M5.81049 13.5104C5.59575 12.8901 5.47146 12.2255 5.47146 11.5388C5.47146 10.852 5.59575 10.1874 5.79919 9.56715L5.7935 9.43504L2.61417 7.01532L2.51015 7.06381C1.82072 8.41517 1.42513 9.93269 1.42513 11.5388C1.42513 13.1449 1.82072 14.6623 2.51015 16.0137L5.81049 13.5104Z" fill="#FBBC05"/>
<path id="vector_4" d="M11.5969 5.4245C13.507 5.4245 14.7955 6.23309 15.5302 6.9088L18.4011 4.1618C16.6379 2.5557 14.3434 1.56989 11.5969 1.56989C7.61835 1.56989 4.18234 3.80733 2.50957 7.06382L5.79862 9.56715C6.62379 7.16354 8.9069 5.4245 11.5969 5.4245Z" fill="#EB4335"/>
</g>
</svg>
