<svg width="22" height="20" viewBox="0 0 22 20" fill="none" xmlns="http://www.w3.org/2000/svg">
<g id="history">
<path id="Vector" opacity="0.16" d="M12 19C16.9706 19 21 14.9706 21 10C21 5.02944 16.9706 1 12 1C7.02944 1 3 5.02944 3 10C3 14.9706 7.02944 19 12 19Z" fill="#9747FF"/>
<path id="Vector_2" d="M5.636 16.3641C7.10845 17.8365 9.04594 18.7528 11.1183 18.9568C13.1906 19.1608 15.2696 18.6399 17.0009 17.4828C18.7322 16.3258 20.0087 14.6041 20.6129 12.6113C21.217 10.6185 21.1115 8.47788 20.3142 6.5542C19.5169 4.63051 18.0772 3.04282 16.2404 2.0617C14.4037 1.08057 12.2835 0.766726 10.2413 1.17364C8.19909 1.58056 6.36116 2.68305 5.04073 4.29325C3.72031 5.90344 2.99909 7.92169 3 10.0041V12.0001" stroke="#9747FF" stroke-width="2" stroke-linecap="round" stroke-linejoin="round"/>
<path id="Vector_3" d="M1 10L3 12L5 10M11 6V11H16" stroke="#9747FF" stroke-width="2" stroke-linecap="round" stroke-linejoin="round"/>
</g>
</svg>
