<svg width="16" height="16" viewBox="0 0 16 16" fill="none" xmlns="http://www.w3.org/2000/svg">
<path d="M5.99984 13.6106V8.94392C5.99984 8.57573 6.29831 8.27725 6.6665 8.27725H9.33317C9.70136 8.27725 9.99984 8.57573 9.99984 8.94392V13.6106M2.6665 12.2773V7.2379C2.6665 6.43808 3.02551 5.68049 3.64454 5.17401L7.15552 2.30139C7.64667 1.89954 8.353 1.89954 8.84415 2.30139L12.3551 5.17401C12.9742 5.68049 13.3332 6.43808 13.3332 7.2379V12.2773C13.3332 13.0136 12.7362 13.6106 11.9998 13.6106H10.6665H5.33317H3.99984C3.26346 13.6106 2.6665 13.0136 2.6665 12.2773Z" stroke="#5F6D7E" stroke-width="1.5" stroke-linecap="round"/>
</svg>
