<svg width="36" height="36" viewBox="0 0 36 36" fill="none" xmlns="http://www.w3.org/2000/svg">
<path fill-rule="evenodd" clip-rule="evenodd" d="M17.9046 0H18.0954C21.9617 0 24.9907 9.98031e-08 27.355 0.31814C29.7728 0.642977 31.6817 1.32279 33.1803 2.81972C34.6789 4.31833 35.357 6.22716 35.6819 8.6467C36 11.0093 36 14.0383 36 17.9046V18.0519C36 21.2484 36 23.8638 35.8259 25.9937C35.6517 28.1369 35.2951 29.9235 34.4947 31.4104C34.1431 32.0651 33.7077 32.6528 33.1803 33.1803C31.6817 34.6789 29.7728 35.357 27.3533 35.6819C24.9907 36 21.9617 36 18.0954 36H17.9046C14.0383 36 11.0093 36 8.64502 35.6819C6.22716 35.357 4.31833 34.6772 2.81972 33.1803C1.49191 31.8525 0.805395 30.1998 0.442047 28.147C0.0820466 26.1327 0.0167441 23.626 0.00334879 20.515C-4.3274e-08 19.723 0 18.8858 0 18.0017V17.9046C0 14.0383 9.98031e-08 11.0093 0.31814 8.64502C0.642977 6.22716 1.32279 4.31833 2.81972 2.81972C4.31833 1.32112 6.22716 0.642977 8.6467 0.31814C11.0093 9.98031e-08 14.0383 0 17.9046 0ZM8.97991 2.80633C6.84 3.09433 5.54902 3.64353 4.59628 4.59628C3.64186 5.5507 3.09433 6.84 2.80633 8.98158C2.51498 11.1583 2.51163 14.0182 2.51163 18V19.4132L4.18772 17.9464C4.92291 17.3029 5.87524 16.9628 6.85178 16.9951C7.82832 17.0275 8.75606 17.4298 9.44707 18.1206L16.6303 25.3038C17.1877 25.8611 17.9239 26.204 18.7092 26.2719C19.4945 26.3399 20.2786 26.1287 20.9235 25.6755L21.4225 25.3239C22.353 24.6701 23.4777 24.3514 24.6128 24.4198C25.748 24.4882 26.8263 24.9398 27.6714 25.7007L32.41 29.9654C32.8889 28.9641 33.1719 27.648 33.3226 25.7911C33.4867 23.7734 33.4884 21.2584 33.4884 18C33.4884 14.0182 33.485 11.1583 33.1937 8.98158C32.9057 6.84 32.3565 5.54902 31.4037 4.5946C30.4493 3.64186 29.16 3.09433 27.0184 2.80633C24.8417 2.51498 21.9818 2.51163 18 2.51163C14.0182 2.51163 11.1567 2.51498 8.97991 2.80633Z" fill="#9747FF"/>
</svg>
