<?xml version="1.0" encoding="utf-8"?>
<svg width="18" height="26" viewBox="0 0 18 26" fill="none" xmlns="http://www.w3.org/2000/svg">
  <path fill-rule="evenodd" clip-rule="evenodd" d="M18 20.5714C18 21.2534 17.7291 21.9075 17.2468 22.3897C16.7646 22.8719 16.1106 23.1429 15.4286 23.1429H13.5V25.7143L11.5714 24.75L9.64286 25.7143V23.1429H2.57143C1.88944 23.1429 1.23539 22.8719 0.753154 22.3897C0.270917 21.9075 0 21.2534 0 20.5714V2.57143C0 1.88944 0.270917 1.23539 0.753154 0.753154C1.23539 0.270918 1.88944 0 2.57143 0H15.4286C16.1106 0 16.7646 0.270918 17.2468 0.753154C17.7291 1.23539 18 1.88944 18 2.57143V20.5714ZM2.57143 1.28571C2.23044 1.28571 1.90341 1.42117 1.66229 1.66229C1.42117 1.90341 1.28571 2.23044 1.28571 2.57143V20.5714C1.28571 20.9124 1.42117 21.2395 1.66229 21.4806C1.90341 21.7217 2.23044 21.8571 2.57143 21.8571H9.64286V20.3439C9.31553 19.9727 9.10226 19.515 9.02863 19.0256C8.95499 18.5363 9.02412 18.0361 9.22773 17.585C9.43134 17.134 9.76077 16.7513 10.1765 16.4828C10.5922 16.2144 11.0766 16.0716 11.5714 16.0716C12.0663 16.0716 12.5506 16.2144 12.9664 16.4828C13.3821 16.7513 13.7115 17.134 13.9151 17.585C14.1187 18.0361 14.1879 18.5363 14.1142 19.0256C14.0406 19.515 13.8273 19.9727 13.5 20.3439V21.8571H15.4286C15.7696 21.8571 16.0966 21.7217 16.3377 21.4806C16.5788 21.2395 16.7143 20.9124 16.7143 20.5714V2.57143C16.7143 2.23044 16.5788 1.90341 16.3377 1.66229C16.0966 1.42117 15.7696 1.28571 15.4286 1.28571H2.57143ZM12.2143 21.1333C11.7926 21.2419 11.3503 21.2419 10.9286 21.1333V23.634L11.5714 23.3126L12.2143 23.634V21.1333ZM11.5714 19.9286C11.9124 19.9286 12.2394 19.7931 12.4806 19.552C12.7217 19.3109 12.8571 18.9839 12.8571 18.6429C12.8571 18.3019 12.7217 17.9748 12.4806 17.7337C12.2394 17.4926 11.9124 17.3571 11.5714 17.3571C11.2304 17.3571 10.9034 17.4926 10.6623 17.7337C10.4212 17.9748 10.2857 18.3019 10.2857 18.6429C10.2857 18.9839 10.4212 19.3109 10.6623 19.552C10.9034 19.7931 11.2304 19.9286 11.5714 19.9286Z" style="fill: rgb(128, 0, 255);"/>
  <path d="M 5.121 3.791 C 5.121 3.621 5.189 3.457 5.309 3.336 C 5.43 3.216 5.594 3.148 5.764 3.148 L 12.193 3.148 C 12.363 3.148 12.527 3.216 12.647 3.336 C 12.768 3.457 12.835 3.621 12.835 3.791 C 12.835 3.961 12.768 4.125 12.647 4.246 C 12.527 4.366 12.363 4.434 12.193 4.434 L 5.764 4.434 C 5.594 4.434 5.43 4.366 5.309 4.246 C 5.189 4.125 5.121 3.961 5.121 3.791 Z M 3.193 7.005 C 3.022 7.005 2.859 7.073 2.738 7.194 C 2.617 7.314 2.55 7.478 2.55 7.648 C 2.55 7.819 2.617 7.982 2.738 8.103 C 2.859 8.223 3.022 8.291 3.193 8.291 L 14.764 8.291 C 14.935 8.291 15.098 8.223 15.219 8.103 C 15.339 7.982 15.407 7.819 15.407 7.648 C 15.407 7.478 15.339 7.314 15.219 7.194 C 15.098 7.073 14.935 7.005 14.764 7.005 L 3.193 7.005 Z M 2.55 10.22 C 2.55 10.049 2.617 9.886 2.738 9.765 C 2.859 9.644 3.022 9.577 3.193 9.577 L 14.764 9.577 C 14.935 9.577 15.098 9.644 15.219 9.765 C 15.339 9.886 15.407 10.049 15.407 10.22 C 15.407 10.39 15.339 10.554 15.219 10.674 C 15.098 10.795 14.935 10.862 14.764 10.862 L 3.193 10.862 C 3.022 10.862 2.859 10.795 2.738 10.674 C 2.617 10.554 2.55 10.39 2.55 10.22 Z M 3.193 12.148 C 3.022 12.148 2.859 12.216 2.738 12.336 C 2.617 12.457 2.55 12.62 2.55 12.791 C 2.55 12.961 2.617 13.125 2.738 13.246 C 2.859 13.366 3.022 13.434 3.193 13.434 L 14.764 13.434 C 14.935 13.434 15.098 13.366 15.219 13.246 C 15.339 13.125 15.407 12.961 15.407 12.791 C 15.407 12.62 15.339 12.457 15.219 12.336 C 15.098 12.216 14.935 12.148 14.764 12.148 L 3.193 12.148 Z" style="fill: rgb(128, 0, 255);"/>
</svg>