<svg width="18" height="26" viewBox="0 0 18 26" fill="none" xmlns="http://www.w3.org/2000/svg">
<path d="M5.14272 4.50003C5.14272 4.32954 5.21045 4.16603 5.33101 4.04547C5.45157 3.92491 5.61508 3.85718 5.78557 3.85718H12.2141C12.3846 3.85718 12.5482 3.92491 12.6687 4.04547C12.7893 4.16603 12.857 4.32954 12.857 4.50003C12.857 4.67053 12.7893 4.83404 12.6687 4.9546C12.5482 5.07516 12.3846 5.14289 12.2141 5.14289H5.78557C5.61508 5.14289 5.45157 5.07516 5.33101 4.9546C5.21045 4.83404 5.14272 4.67053 5.14272 4.50003ZM3.21415 7.71432C3.04365 7.71432 2.88014 7.78205 2.75958 7.90261C2.63902 8.02317 2.57129 8.18668 2.57129 8.35718C2.57129 8.52767 2.63902 8.69119 2.75958 8.81175C2.88014 8.93231 3.04365 9.00003 3.21415 9.00003H14.7856C14.9561 9.00003 15.1196 8.93231 15.2401 8.81175C15.3607 8.69119 15.4284 8.52767 15.4284 8.35718C15.4284 8.18668 15.3607 8.02317 15.2401 7.90261C15.1196 7.78205 14.9561 7.71432 14.7856 7.71432H3.21415ZM2.57129 10.9286C2.57129 10.7581 2.63902 10.5946 2.75958 10.474C2.88014 10.3535 3.04365 10.2857 3.21415 10.2857H14.7856C14.9561 10.2857 15.1196 10.3535 15.2401 10.474C15.3607 10.5946 15.4284 10.7581 15.4284 10.9286C15.4284 11.0991 15.3607 11.2626 15.2401 11.3832C15.1196 11.5037 14.9561 11.5715 14.7856 11.5715H3.21415C3.04365 11.5715 2.88014 11.5037 2.75958 11.3832C2.63902 11.2626 2.57129 11.0991 2.57129 10.9286ZM3.21415 12.8572C3.04365 12.8572 2.88014 12.9249 2.75958 13.0455C2.63902 13.166 2.57129 13.3295 2.57129 13.5C2.57129 13.6705 2.63902 13.834 2.75958 13.9546C2.88014 14.0752 3.04365 14.1429 3.21415 14.1429H14.7856C14.9561 14.1429 15.1196 14.0752 15.2401 13.9546C15.3607 13.834 15.4284 13.6705 15.4284 13.5C15.4284 13.3295 15.3607 13.166 15.2401 13.0455C15.1196 12.9249 14.9561 12.8572 14.7856 12.8572H3.21415Z" fill="black"/>
<path fill-rule="evenodd" clip-rule="evenodd" d="M18 20.5714C18 21.2534 17.7291 21.9075 17.2468 22.3897C16.7646 22.8719 16.1106 23.1429 15.4286 23.1429H13.5V25.7143L11.5714 24.75L9.64286 25.7143V23.1429H2.57143C1.88944 23.1429 1.23539 22.8719 0.753154 22.3897C0.270917 21.9075 0 21.2534 0 20.5714V2.57143C0 1.88944 0.270917 1.23539 0.753154 0.753154C1.23539 0.270918 1.88944 0 2.57143 0H15.4286C16.1106 0 16.7646 0.270918 17.2468 0.753154C17.7291 1.23539 18 1.88944 18 2.57143V20.5714ZM2.57143 1.28571C2.23044 1.28571 1.90341 1.42117 1.66229 1.66229C1.42117 1.90341 1.28571 2.23044 1.28571 2.57143V20.5714C1.28571 20.9124 1.42117 21.2395 1.66229 21.4806C1.90341 21.7217 2.23044 21.8571 2.57143 21.8571H9.64286V20.3439C9.31553 19.9727 9.10226 19.515 9.02863 19.0256C8.95499 18.5363 9.02412 18.0361 9.22773 17.585C9.43134 17.134 9.76077 16.7513 10.1765 16.4828C10.5922 16.2144 11.0766 16.0716 11.5714 16.0716C12.0663 16.0716 12.5506 16.2144 12.9664 16.4828C13.3821 16.7513 13.7115 17.134 13.9151 17.585C14.1187 18.0361 14.1879 18.5363 14.1142 19.0256C14.0406 19.515 13.8273 19.9727 13.5 20.3439V21.8571H15.4286C15.7696 21.8571 16.0966 21.7217 16.3377 21.4806C16.5788 21.2395 16.7143 20.9124 16.7143 20.5714V2.57143C16.7143 2.23044 16.5788 1.90341 16.3377 1.66229C16.0966 1.42117 15.7696 1.28571 15.4286 1.28571H2.57143ZM12.2143 21.1333C11.7926 21.2419 11.3503 21.2419 10.9286 21.1333V23.634L11.5714 23.3126L12.2143 23.634V21.1333ZM11.5714 19.9286C11.9124 19.9286 12.2394 19.7931 12.4806 19.552C12.7217 19.3109 12.8571 18.9839 12.8571 18.6429C12.8571 18.3019 12.7217 17.9748 12.4806 17.7337C12.2394 17.4926 11.9124 17.3571 11.5714 17.3571C11.2304 17.3571 10.9034 17.4926 10.6623 17.7337C10.4212 17.9748 10.2857 18.3019 10.2857 18.6429C10.2857 18.9839 10.4212 19.3109 10.6623 19.552C10.9034 19.7931 11.2304 19.9286 11.5714 19.9286Z" fill="black"/>
</svg>
