<svg width="15" height="16" viewBox="0 0 15 16" fill="none" xmlns="http://www.w3.org/2000/svg">
<g id="Group">
<path id="Vector" opacity="0.2" d="M14.4444 6.05258C14.4446 6.87034 14.2442 7.67566 13.8608 8.39796C13.4774 9.12027 12.9227 9.73751 12.2452 10.1956C11.5678 10.6537 10.7884 10.9386 9.97525 11.0254C9.16212 11.1122 8.3401 10.9983 7.58123 10.6936L6.66665 11.6081H4.99999V13.2748H3.33332V14.9415H0.555542V12.1637L4.80346 7.91577C4.5293 7.23189 4.40967 6.49586 4.45314 5.76035C4.4966 5.02484 4.70208 4.30802 5.05487 3.66118C5.40767 3.01434 5.89906 2.45347 6.49389 2.01868C7.08872 1.58389 7.77229 1.28594 8.4957 1.14613C9.2191 1.00633 9.96447 1.02813 10.6785 1.20998C11.3925 1.39182 12.0575 1.72922 12.6259 2.19803C13.1943 2.66684 13.652 3.25548 13.9664 3.92183C14.2808 4.58819 14.444 5.31579 14.4444 6.05258Z" fill="#9747FF"/>
<path id="Vector_2" d="M9.44444 0.496948C8.56758 0.497735 7.70333 0.70589 6.92226 1.10442C6.14119 1.50295 5.46545 2.08056 4.9502 2.79008C4.43496 3.4996 4.09482 4.32091 3.95756 5.18697C3.8203 6.05303 3.88981 6.93927 4.16042 7.77334L0.1625 11.7706C0.110926 11.8222 0.0700289 11.8835 0.0421466 11.9509C0.0142643 12.0184 -5.72144e-05 12.0906 1.71777e-07 12.1636V14.9414C1.71777e-07 15.0887 0.0585317 15.23 0.162719 15.3342C0.266905 15.4384 0.408213 15.4969 0.555556 15.4969H3.33333C3.48068 15.4969 3.62198 15.4384 3.72617 15.3342C3.83036 15.23 3.88889 15.0887 3.88889 14.9414V13.8303H5C5.14734 13.8303 5.28865 13.7718 5.39284 13.6676C5.49702 13.5634 5.55556 13.4221 5.55556 13.2747V12.1636H6.66667C6.73964 12.1637 6.81192 12.1494 6.87936 12.1215C6.9468 12.0936 7.00809 12.0527 7.05972 12.0011L7.72361 11.3365C8.48717 11.5844 9.29538 11.6639 10.0926 11.5695C10.8898 11.4751 11.6571 11.209 12.3416 10.7896C13.0262 10.3702 13.6117 9.8074 14.0578 9.14C14.504 8.47259 14.8002 7.71643 14.926 6.92356C15.0519 6.1307 15.0044 5.31997 14.7869 4.54721C14.5694 3.77445 14.187 3.05801 13.666 2.44722C13.1451 1.83643 12.4979 1.3458 11.7691 1.00912C11.0403 0.672442 10.2472 0.497707 9.44444 0.496948ZM9.44444 10.4969C8.88206 10.4979 8.32465 10.3916 7.80208 10.1838C7.69986 10.1394 7.58666 10.1268 7.47718 10.1476C7.36771 10.1684 7.26702 10.2216 7.18819 10.3004L6.43681 11.0525H5C4.85266 11.0525 4.71135 11.111 4.60716 11.2152C4.50298 11.3194 4.44444 11.4607 4.44444 11.6081V12.7192H3.33333C3.18599 12.7192 3.04468 12.7777 2.9405 12.8819C2.83631 12.9861 2.77778 13.1274 2.77778 13.2747V14.3858H1.11111V12.3935L5.19653 8.30875C5.2753 8.22993 5.32855 8.12924 5.34935 8.01977C5.37016 7.91029 5.35756 7.79709 5.31319 7.69487C4.96187 6.81143 4.90309 5.83861 5.1455 4.9193C5.38791 3.99999 5.91873 3.18264 6.65999 2.5873C7.40125 1.99196 8.31388 1.65001 9.26384 1.61167C10.2138 1.57334 11.151 1.84064 11.9378 2.37431C12.7247 2.90798 13.3196 3.6799 13.6353 4.57669C13.951 5.47348 13.9708 6.44787 13.6918 7.35675C13.4128 8.26562 12.8497 9.06108 12.0852 9.62628C11.3208 10.1915 10.3952 10.4967 9.44444 10.4969ZM11.6667 4.66362C11.6667 4.82843 11.6178 4.98955 11.5262 5.12659C11.4347 5.26363 11.3045 5.37044 11.1522 5.43351C11 5.49659 10.8324 5.51309 10.6708 5.48094C10.5091 5.44878 10.3606 5.36941 10.2441 5.25287C10.1275 5.13633 10.0482 4.98784 10.016 4.82619C9.98386 4.66454 10.0004 4.49698 10.0634 4.34471C10.1265 4.19244 10.2333 4.06229 10.3704 3.97072C10.5074 3.87916 10.6685 3.83028 10.8333 3.83028C11.0543 3.83028 11.2663 3.91808 11.4226 4.07436C11.5789 4.23064 11.6667 4.4426 11.6667 4.66362Z" fill="#9747FF"/>
</g>
</svg>
