<svg width="63" height="68" viewBox="0 0 63 68" fill="none" xmlns="http://www.w3.org/2000/svg">
<g id="Group">
<path id="Vector" d="M44.9668 18.9613V15.5083C44.9668 11.8451 43.5116 8.3319 40.9213 5.74162C38.3311 3.15134 34.8179 1.69614 31.1547 1.69614C27.4915 1.69614 23.9783 3.15134 21.388 5.74162C18.7977 8.3319 17.3425 11.8451 17.3425 15.5083V18.9613" stroke="#9747FF" stroke-width="2" stroke-linecap="round"/>
<path id="Vector_2" fill-rule="evenodd" clip-rule="evenodd" d="M3.11255 18.5435C0.0773313 21.5753 0.0773315 26.4613 0.0773315 36.2265V39.6796C0.0773315 52.701 0.0773311 59.2134 4.12429 63.2569C8.1678 67.3039 14.6802 67.3039 27.7016 67.3039H34.6077C47.6291 67.3039 54.1416 67.3039 58.1851 63.2569C62.232 59.2134 62.232 52.701 62.232 39.6796V36.2265C62.232 26.4613 62.232 21.5753 59.1968 18.5435C56.165 15.5083 51.279 15.5083 41.5138 15.5083H20.7956C11.0304 15.5083 6.14432 15.5083 3.11255 18.5435ZM31.1547 43.1326C32.0705 43.1326 32.9488 42.7688 33.5963 42.1212C34.2439 41.4737 34.6077 40.5954 34.6077 39.6796C34.6077 38.7638 34.2439 37.8855 33.5963 37.2379C32.9488 36.5903 32.0705 36.2265 31.1547 36.2265C30.2389 36.2265 29.3606 36.5903 28.713 37.2379C28.0654 37.8855 27.7016 38.7638 27.7016 39.6796C27.7016 40.5954 28.0654 41.4737 28.713 42.1212C29.3606 42.7688 30.2389 43.1326 31.1547 43.1326ZM41.5138 39.6796C41.5144 41.8226 40.8506 43.9131 39.6138 45.6632C38.377 47.4133 36.628 48.7369 34.6077 49.4517V56.9448H27.7016V49.4517C25.91 48.8192 24.3268 47.7063 23.125 46.2347C21.9232 44.7631 21.1492 42.9894 20.8874 41.1076C20.6257 39.2257 20.8864 37.3081 21.641 35.5644C22.3957 33.8207 23.6151 32.318 25.1662 31.2207C26.7172 30.1233 28.5401 29.4735 30.4355 29.3423C32.331 29.2111 34.226 29.6035 35.9135 30.4766C37.6009 31.3498 39.0158 32.6701 40.0035 34.2931C40.9912 35.9162 41.5137 37.7796 41.5138 39.6796Z" fill="#9747FF"/>
</g>
</svg>
