<svg width="90" height="82" viewBox="0 0 90 82" fill="none" xmlns="http://www.w3.org/2000/svg">
<path id="Vector" d="M90 23.5714C90 29.823 87.5166 35.8185 83.0961 40.2389C78.6756 44.6595 72.6801 47.1429 66.4286 47.1429C60.177 47.1429 54.1816 44.6595 49.7611 40.2389C45.3405 35.8185 42.8571 29.823 42.8571 23.5714C42.8571 17.3199 45.3405 11.3244 49.7611 6.90391C54.1816 2.48341 60.177 0 66.4286 0C72.6801 0 78.6756 2.48341 83.0961 6.90391C87.5166 11.3244 90 17.3199 90 23.5714ZM80.8029 13.4829C80.6038 13.2833 80.3673 13.125 80.107 13.0169C79.8467 12.9089 79.5676 12.8533 79.2857 12.8533C79.0039 12.8533 78.7248 12.9089 78.4644 13.0169C78.2041 13.125 77.9676 13.2833 77.7686 13.4829L62.1429 29.1129L55.0886 22.0543C54.6862 21.6519 54.1405 21.4259 53.5714 21.4259C53.0024 21.4259 52.4567 21.6519 52.0543 22.0543C51.6519 22.4567 51.4259 23.0024 51.4259 23.5714C51.4259 24.1405 51.6519 24.6862 52.0543 25.0886L60.6257 33.66C60.8248 33.8596 61.0612 34.0179 61.3216 34.1259C61.5819 34.2339 61.861 34.2895 62.1429 34.2895C62.4247 34.2895 62.7038 34.2339 62.9641 34.1259C63.2245 34.0179 63.4609 33.8596 63.66 33.66L80.8029 16.5171C81.0024 16.3181 81.1607 16.0816 81.2688 15.8213C81.3768 15.561 81.4324 15.2819 81.4324 15C81.4324 14.7181 81.3768 14.439 81.2688 14.1787C81.1607 13.9184 81.0024 13.6819 80.8029 13.4829ZM66.4286 51.4286C73.6191 51.4379 80.5328 48.6571 85.7143 43.6714V67.5C85.7145 71.0577 84.3533 74.4807 81.91 77.0667C79.4666 79.6527 76.1263 81.2057 72.5743 81.4072L71.7857 81.4286H13.9286C10.3708 81.4288 6.94788 80.0676 4.36187 77.6243C1.77586 75.1809 0.222851 71.8406 0.0214291 68.2886L0 67.5V32.6057L41.3657 54.2743C41.8259 54.5153 42.3377 54.6412 42.8571 54.6412C43.3766 54.6412 43.8884 54.5153 44.3486 54.2743L54.7071 48.8486C58.3794 50.5531 62.38 51.4336 66.4286 51.4286ZM13.9286 12.8571H40.7057C39.2918 16.252 38.5663 19.8939 38.5714 23.5714C38.5714 32.1129 42.4157 39.7543 48.4629 44.8629L42.8571 47.7986L0.0685716 25.3843C0.401773 22.0864 1.90016 19.0154 4.2945 16.7232C6.68884 14.431 9.82215 13.0678 13.1314 12.8786L13.9286 12.8571Z" fill="#9747FF"/>
</svg>
