<svg width="67" height="60" viewBox="0 0 67 60" fill="none" xmlns="http://www.w3.org/2000/svg">
<path id="Vector" d="M66.3158 17.3684C66.3158 21.9748 64.4859 26.3925 61.2287 29.6498C57.9715 32.907 53.5538 34.7368 48.9474 34.7368C44.341 34.7368 39.9232 32.907 36.666 29.6498C33.4088 26.3925 31.5789 21.9748 31.5789 17.3684C31.5789 12.762 33.4088 8.3443 36.666 5.08709C39.9232 1.82988 44.341 0 48.9474 0C53.5538 0 57.9715 1.82988 61.2287 5.08709C64.4859 8.3443 66.3158 12.762 66.3158 17.3684ZM59.5389 9.93474C59.3923 9.78769 59.218 9.67103 59.0262 9.59143C58.8344 9.51183 58.6287 9.47086 58.4211 9.47086C58.2134 9.47086 58.0077 9.51183 57.8159 9.59143C57.6241 9.67103 57.4498 9.78769 57.3032 9.93474L45.7895 21.4516L40.5916 16.2505C40.2951 15.954 39.893 15.7875 39.4737 15.7875C39.0544 15.7875 38.6523 15.954 38.3558 16.2505C38.0593 16.547 37.8927 16.9491 37.8927 17.3684C37.8927 17.7877 38.0593 18.1898 38.3558 18.4863L44.6716 24.8021C44.8182 24.9491 44.9925 25.0658 45.1843 25.1454C45.3761 25.225 45.5818 25.266 45.7895 25.266C45.9972 25.266 46.2028 25.225 46.3946 25.1454C46.5865 25.0658 46.7607 24.9491 46.9074 24.8021L59.5389 12.1705C59.686 12.0239 59.8027 11.8496 59.8823 11.6578C59.9618 11.466 60.0028 11.2603 60.0028 11.0526C60.0028 10.8449 59.9618 10.6393 59.8823 10.4475C59.8027 10.2556 59.686 10.0814 59.5389 9.93474ZM48.9474 37.8947C54.2457 37.9016 59.34 35.8526 63.1579 32.1789V49.7368C63.1581 52.3583 62.1551 54.8805 60.3547 56.786C58.5543 58.6915 56.0931 59.8358 53.4758 59.9842L52.8947 60H10.2632C7.64167 60.0002 5.11949 58.9972 3.21401 57.1968C1.30853 55.3965 0.164206 52.9352 0.0157898 50.3179L0 49.7368V24.0253L30.48 39.9916C30.8191 40.1692 31.1962 40.262 31.5789 40.262C31.9617 40.262 32.3388 40.1692 32.6779 39.9916L40.3105 35.9937C43.0164 37.2496 45.9642 37.8985 48.9474 37.8947ZM10.2632 9.47368H29.9937C28.9518 11.9752 28.4173 14.6587 28.4211 17.3684C28.4211 23.6621 31.2537 29.2926 35.7095 33.0568L31.5789 35.22L0.0505264 18.7042C0.296043 16.2742 1.40012 14.0114 3.16437 12.3224C4.92862 10.6334 7.23738 9.62891 9.67579 9.48947L10.2632 9.47368Z" fill="#9747FF"/>
</svg>
