<svg width="36" height="36" viewBox="0 0 36 36" fill="none" xmlns="http://www.w3.org/2000/svg">
<path opacity="0.5" fill-rule="evenodd" clip-rule="evenodd" d="M21.6 36H14.4C7.6122 36 4.2174 36 2.1096 33.8904C-2.14577e-07 31.7826 0 28.3878 0 21.6V14.4C0 7.6122 -2.14577e-07 4.2174 2.1096 2.1096C4.2174 -2.14577e-07 7.6302 0 14.454 0C15.5448 0 16.4178 -7.37607e-08 17.154 0.0305999C17.1306 0.1746 17.118 0.3204 17.118 0.4698L17.1 5.571C17.1 7.5456 17.1 9.2916 17.289 10.6974C17.4942 12.222 17.964 13.7466 19.2096 14.9922C20.4516 16.2342 21.978 16.7058 23.5026 16.911C24.9084 17.1 26.6544 17.1 28.629 17.1H35.9226C36 18.0612 36 19.242 36 20.8134V21.6C36 28.3878 36 31.7826 33.8904 33.8904C31.7826 36 28.3878 36 21.6 36Z" fill="#9747FF"/>
</svg>
