<svg width="75" height="75" viewBox="0 0 75 75" fill="none" xmlns="http://www.w3.org/2000/svg">
<g id="Vector">
<path fill-rule="evenodd" clip-rule="evenodd" d="M45 75H30C15.8588 75 8.78625 75 4.395 70.605C-4.47035e-07 66.2137 0 59.1412 0 45V30C0 15.8588 -4.47035e-07 8.78625 4.395 4.395C8.78625 -4.47035e-07 15.8962 0 30.1125 0C32.385 0 34.2037 -1.53668e-07 35.7375 0.0637498C35.6887 0.36375 35.6625 0.6675 35.6625 0.97875L35.625 11.6062C35.625 15.72 35.625 19.3575 36.0187 22.2862C36.4462 25.4625 37.425 28.6388 40.02 31.2338C42.6075 33.8213 45.7875 34.8038 48.9638 35.2313C51.8925 35.625 55.53 35.625 59.6438 35.625H74.8388C75 37.6275 75 40.0875 75 43.3612V45C75 59.1412 75 66.2137 70.605 70.605C66.2137 75 59.1412 75 45 75Z" fill="#F26D26"/>
<path d="M65.07 21.0637L50.22 7.7025C45.9938 3.89625 43.8825 1.99125 41.2837 0.9975L41.25 11.25C41.25 20.0888 41.25 24.51 43.995 27.255C46.74 30 51.1612 30 60 30H73.425C72.0675 27.36 69.63 25.17 65.07 21.0637Z" fill="#F26D26"/>
</g>
</svg>
