<svg width="24" height="24" viewBox="0 0 24 24" fill="none" xmlns="http://www.w3.org/2000/svg">
<path d="M3 2.625C3 2.00368 3.50368 1.5 4.125 1.5H14.25L21 8.25V21.375C21 21.9963 20.4963 22.5 19.875 22.5H4.125C3.50368 22.5 3 21.9963 3 21.375V2.625Z" fill="url(#paint0_linear_149_6432)"/>
<path d="M14.25 7.125V1.5L21 8.25H15.375C14.7537 8.25 14.25 7.74632 14.25 7.125Z" fill="#BA253D"/>
<path d="M6.54346 16.5002V12.8252H8.13421C8.46321 12.8252 8.74671 12.8794 8.98471 12.9879C9.22271 13.0929 9.40646 13.2452 9.53596 13.4447C9.66546 13.6442 9.73021 13.8822 9.73021 14.1587C9.73021 14.4317 9.66546 14.6679 9.53596 14.8674C9.40646 15.0669 9.22271 15.2209 8.98471 15.3294C8.74671 15.4344 8.46321 15.4869 8.13421 15.4869H7.01596L7.39396 15.1037V16.5002H6.54346ZM7.39396 15.1982L7.01596 14.7939H8.08696C8.34946 14.7939 8.54546 14.7379 8.67496 14.6259C8.80446 14.5139 8.86921 14.3582 8.86921 14.1587C8.86921 13.9557 8.80446 13.7982 8.67496 13.6862C8.54546 13.5742 8.34946 13.5182 8.08696 13.5182H7.01596L7.39396 13.1139V15.1982Z" fill="white"/>
<path d="M10.4874 16.5002V12.8252H12.1569C12.5559 12.8252 12.9077 12.9022 13.2122 13.0562C13.5167 13.2067 13.7547 13.4184 13.9262 13.6914C14.0977 13.9644 14.1834 14.2882 14.1834 14.6627C14.1834 15.0337 14.0977 15.3574 13.9262 15.6339C13.7547 15.9069 13.5167 16.1204 13.2122 16.2744C12.9077 16.4249 12.5559 16.5002 12.1569 16.5002H10.4874ZM11.3379 15.8019H12.1149C12.3599 15.8019 12.5717 15.7564 12.7502 15.6654C12.9322 15.5709 13.0722 15.4379 13.1702 15.2664C13.2717 15.0949 13.3224 14.8937 13.3224 14.6627C13.3224 14.4282 13.2717 14.2269 13.1702 14.0589C13.0722 13.8874 12.9322 13.7562 12.7502 13.6652C12.5717 13.5707 12.3599 13.5234 12.1149 13.5234H11.3379V15.8019Z" fill="white"/>
<path d="M15.7623 14.4789H17.5263V15.1614H15.7623V14.4789ZM15.8253 16.5002H14.9748V12.8252H17.7521V13.5077H15.8253V16.5002Z" fill="white"/>
<defs>
<linearGradient id="paint0_linear_149_6432" x1="12" y1="1.5" x2="12" y2="22.5" gradientUnits="userSpaceOnUse">
<stop stop-color="#FA6976"/>
<stop offset="1" stop-color="#E44B5F"/>
</linearGradient>
</defs>
</svg>
