<svg width="15" height="15" viewBox="0 0 15 15" fill="none" xmlns="http://www.w3.org/2000/svg">
<path id="Vector" d="M6.27295 3.01188L11.9881 8.72786L6.18969 14.5271C5.92129 14.7955 5.56702 14.9609 5.18893 14.9943L5.04665 15H0.816454C0.615312 15 0.421248 14.9258 0.271474 14.7915C0.1217 14.6572 0.0267568 14.4724 0.00485025 14.2725L0 14.1835V9.95335C9.27452e-05 9.57378 0.133732 9.20634 0.377509 8.9154L0.474513 8.81031L6.27295 3.01188ZM8.81123 0.473595C9.09732 0.187474 9.4803 0.0190263 9.88453 0.00151591C10.2888 -0.0159945 10.6849 0.118705 10.9946 0.379016L11.0973 0.473595L14.5272 3.90351C14.8131 4.18956 14.9814 4.57237 14.9989 4.97642C15.0164 5.38046 14.8819 5.7764 14.6218 6.08611L14.5272 6.18958L13.132 7.58482L7.41679 1.86884L8.81123 0.473595Z" fill="white"/>
</svg>
