<svg width="34" height="32" viewBox="0 0 34 32" fill="none" xmlns="http://www.w3.org/2000/svg">
<path fill-rule="evenodd" clip-rule="evenodd" d="M0.00565612 16C0.00565612 16.9083 0.467656 17.7395 1.39341 19.402L3.75241 23.6475L6.24791 27.8143C7.22616 29.447 7.71441 30.2643 8.50016 30.7193C9.28766 31.1725 10.2379 31.1865 12.1402 31.218L16.9999 31.295L21.8562 31.218C23.7602 31.1865 24.7104 31.1725 25.4962 30.7175C26.2837 30.2625 26.7737 29.447 27.7502 27.8143L30.2457 23.6475L32.6082 19.402C33.5322 17.7395 33.9942 16.9083 33.9942 16C33.9942 15.0918 33.5322 14.2605 32.6064 12.598L30.2474 8.35252L27.7519 4.18577C26.7737 2.55302 26.2854 1.73577 25.4997 1.28077C24.7122 0.827517 23.7619 0.813517 21.8597 0.782017L16.9999 0.705017L12.1437 0.782017C10.2397 0.813517 9.28941 0.827517 8.50366 1.28252C7.71616 1.73752 7.22616 2.55302 6.24966 4.18577L3.75241 8.35252L1.38991 12.598C0.465906 14.2605 0.00565612 15.0918 0.00565612 16ZM16.9999 21.25C18.3923 21.25 19.7277 20.6969 20.7122 19.7123C21.6968 18.7278 22.2499 17.3924 22.2499 16C22.2499 14.6076 21.6968 13.2723 20.7122 12.2877C19.7277 11.3031 18.3923 10.75 16.9999 10.75C15.6075 10.75 14.2722 11.3031 13.2876 12.2877C12.303 13.2723 11.7499 14.6076 11.7499 16C11.7499 17.3924 12.303 18.7278 13.2876 19.7123C14.2722 20.6969 15.6075 21.25 16.9999 21.25Z" fill="#9747FF" fill-opacity="0.25"/>
</svg>
