<svg width="26" height="31" viewBox="0 0 26 31" fill="none" xmlns="http://www.w3.org/2000/svg">
<path id="Vector" fill-rule="evenodd" clip-rule="evenodd" d="M15.9545 5.49951C15.9545 2.73951 18.2045 0.500014 20.9765 0.500014C21.6346 0.498437 22.2866 0.626501 22.8952 0.876896C23.5038 1.12729 24.0572 1.49511 24.5237 1.95936C24.9901 2.4236 25.3606 2.97518 25.6139 3.58261C25.8672 4.19003 25.9984 4.84139 26 5.49951C26 8.26101 23.75 10.5005 20.9765 10.5005C20.3114 10.5013 19.6527 10.3699 19.0388 10.114C18.4249 9.85801 17.868 9.48258 17.4005 9.00951L10.448 13.7435C10.6416 14.708 10.5467 15.7082 10.175 16.619L17.798 21.629C18.6958 20.8967 19.8194 20.4977 20.978 20.4995C21.6361 20.4981 22.288 20.6264 22.8966 20.877C23.5051 21.1275 24.0584 21.4955 24.5247 21.9599C24.9911 22.4243 25.3614 22.976 25.6145 23.5835C25.8676 24.191 25.9986 24.8424 26 25.5005C26 28.2605 23.75 30.5 20.9765 30.5C19.6476 30.5028 18.372 29.9777 17.4303 29.0401C16.4885 28.1026 15.9577 26.8294 15.9545 25.5005C15.9533 24.7994 16.1011 24.1061 16.388 23.4665L8.82499 18.5C7.90911 19.2964 6.73568 19.7339 5.522 19.7315C4.86382 19.7331 4.21179 19.6049 3.60315 19.3544C2.99451 19.1039 2.44119 18.736 1.97482 18.2715C1.50844 17.8071 1.13815 17.2553 0.885092 16.6478C0.632037 16.0402 0.50118 15.3887 0.5 14.7305C0.501377 14.0725 0.632379 13.4211 0.885522 12.8137C1.13866 12.2063 1.50899 11.6547 1.97535 11.1904C2.4417 10.7262 2.99495 10.3583 3.60349 10.1079C4.21203 9.8575 4.86395 9.72943 5.522 9.73101C7.11799 9.73101 8.53699 10.4705 9.45649 11.6225L16.196 7.03401C16.0356 6.53831 15.9542 6.0205 15.9545 5.49951Z" fill="white"/>
</svg>
