<svg width="26" height="30" viewBox="0 0 26 30" fill="none" xmlns="http://www.w3.org/2000/svg">
<path id="Vector" fill-rule="evenodd" clip-rule="evenodd" d="M15.4545 4.99951C15.4545 2.23951 17.7045 1.44026e-05 20.4765 1.44026e-05C21.1346 -0.00156335 21.7866 0.126501 22.3952 0.376896C23.0038 0.627291 23.5572 0.995112 24.0237 1.45936C24.4901 1.9236 24.8606 2.47518 25.1139 3.08261C25.3672 3.69003 25.4984 4.34139 25.5 4.99951C25.5 7.76101 23.25 10.0005 20.4765 10.0005C19.8114 10.0013 19.1527 9.86994 18.5388 9.61397C17.9249 9.35801 17.368 8.98258 16.9005 8.50951L9.94799 13.2435C10.1416 14.208 10.0467 15.2082 9.67499 16.119L17.298 21.129C18.1958 20.3967 19.3194 19.9977 20.478 19.9995C21.1361 19.9981 21.788 20.1264 22.3966 20.377C23.0052 20.6275 23.5584 20.9955 24.0247 21.4599C24.4911 21.9243 24.8614 22.476 25.1145 23.0835C25.3676 23.691 25.4986 24.3424 25.5 25.0005C25.5 27.7605 23.25 30 20.4765 30C19.1476 30.0028 17.872 29.4777 16.9303 28.5401C15.9885 27.6026 15.4577 26.3294 15.4545 25.0005C15.4533 24.2994 15.6011 23.6061 15.888 22.9665L8.32499 18C7.40911 18.7964 6.23568 19.2339 5.022 19.2315C4.36382 19.2331 3.71179 19.1049 3.10315 18.8544C2.49451 18.6039 1.94119 18.236 1.47482 17.7715C1.00844 17.3071 0.638147 16.7553 0.385092 16.1478C0.132037 15.5402 0.00118046 14.8887 0 14.2305C0.00137726 13.5725 0.132379 12.9211 0.385522 12.3137C0.638665 11.7063 1.00899 11.1547 1.47535 10.6904C1.9417 10.2262 2.49495 9.85833 3.10349 9.60792C3.71203 9.3575 4.36395 9.22943 5.022 9.23101C6.61799 9.23101 8.03699 9.97051 8.95649 11.1225L15.696 6.53401C15.5356 6.03831 15.4542 5.5205 15.4545 4.99951Z" fill="#F26D26"/>
</svg>
