<svg width="18" height="18" viewBox="0 0 18 18" fill="none" xmlns="http://www.w3.org/2000/svg">
<g id="signout">
<path id="Vector" d="M16.8363 8.3637L14.1363 5.6637C14.0527 5.58014 13.9534 5.51387 13.8442 5.46867C13.7349 5.42347 13.6179 5.40023 13.4997 5.40027C13.3814 5.40031 13.2644 5.42364 13.1552 5.46891C13.046 5.51419 12.9468 5.58053 12.8632 5.66415C12.7797 5.74777 12.7134 5.84703 12.6682 5.95626C12.623 6.06549 12.5998 6.18256 12.5998 6.30077C12.5998 6.41898 12.6232 6.53603 12.6684 6.64523C12.7137 6.75443 12.7801 6.85364 12.8637 6.9372L14.0274 8.1H8.99998C8.76128 8.1 8.53236 8.19482 8.36358 8.36361C8.1948 8.53239 8.09998 8.76131 8.09998 9C8.09998 9.2387 8.1948 9.46761 8.36358 9.6364C8.53236 9.80518 8.76128 9.9 8.99998 9.9H14.0274L12.8637 11.0637C12.7777 11.1467 12.7092 11.246 12.662 11.3558C12.6148 11.4656 12.59 11.5837 12.5889 11.7032C12.5879 11.8227 12.6107 11.9413 12.6559 12.0519C12.7012 12.1625 12.768 12.263 12.8525 12.3475C12.937 12.432 13.0375 12.4988 13.1481 12.544C13.2587 12.5893 13.3772 12.6121 13.4967 12.611C13.6162 12.61 13.7343 12.5852 13.8441 12.538C13.9539 12.4908 14.0533 12.4223 14.1363 12.3363L16.8363 9.6363C16.92 9.55271 16.9863 9.45346 17.0316 9.3442C17.0769 9.23494 17.1002 9.11783 17.1002 8.99955C17.1002 8.88128 17.0769 8.76416 17.0316 8.6549C16.9863 8.54565 16.92 8.44639 16.8363 8.3628V8.3637Z" fill="#9747FF"/>
<path id="Vector_2" opacity="0.5" d="M9 9.9C8.76131 9.9 8.53239 9.80518 8.3636 9.6364C8.19482 9.46761 8.1 9.23869 8.1 9C8.1 8.7613 8.19482 8.53239 8.3636 8.3636C8.53239 8.19482 8.76131 8.1 9 8.1H12.6V2.7C12.5993 1.98413 12.3146 1.29779 11.8084 0.791601C11.3022 0.285408 10.6159 0.000714794 9.9 0H2.7C1.98413 0.000714794 1.29779 0.285408 0.791601 0.791601C0.285408 1.29779 0.000714794 1.98413 0 2.7V15.3C0.000714794 16.0159 0.285408 16.7022 0.791601 17.2084C1.29779 17.7146 1.98413 17.9993 2.7 18H9.9C10.6159 17.9993 11.3022 17.7146 11.8084 17.2084C12.3146 16.7022 12.5993 16.0159 12.6 15.3V9.9H9Z" fill="#9747FF"/>
</g>
</svg>
