<svg width="65" height="64" viewBox="0 0 65 64" fill="none" xmlns="http://www.w3.org/2000/svg">
<path id="Vector" d="M64.0713 52.5085L38.6964 3.91057C38.0624 2.71994 37.1571 1.73273 36.0705 1.04679C34.9838 0.360854 33.7535 0 32.5014 0C31.2494 0 30.0191 0.360854 28.9324 1.04679C27.8458 1.73273 26.9405 2.71994 26.3065 3.91057L0.931637 52.5085C0.321527 53.6601 0 54.9699 0 56.3037C0 57.6374 0.321527 58.9472 0.931637 60.0988C1.55761 61.2966 2.46129 62.2892 3.54996 62.9747C4.63863 63.6602 5.87308 64.0139 7.12663 63.9996H57.8763C59.1288 64.0128 60.3621 63.6585 61.4496 62.9731C62.5372 62.2877 63.44 61.2957 64.0655 60.0988C64.6764 58.9478 64.999 57.6383 65 56.3045C65.001 54.9708 64.6805 53.6607 64.0713 52.5085ZM30.1801 25.6C30.1801 24.921 30.4247 24.2699 30.86 23.7898C31.2954 23.3097 31.8858 23.04 32.5014 23.04C33.1171 23.04 33.7075 23.3097 34.1429 23.7898C34.5782 24.2699 34.8228 24.921 34.8228 25.6V38.3998C34.8228 39.0788 34.5782 39.7299 34.1429 40.21C33.7075 40.6901 33.1171 40.9598 32.5014 40.9598C31.8858 40.9598 31.2954 40.6901 30.86 40.21C30.4247 39.7299 30.1801 39.0788 30.1801 38.3998V25.6ZM32.5014 53.7597C31.8128 53.7597 31.1396 53.5345 30.567 53.1125C29.9944 52.6906 29.5481 52.0909 29.2845 51.3892C29.021 50.6875 28.952 49.9155 29.0864 49.1706C29.2207 48.4257 29.5524 47.7415 30.0393 47.2045C30.5263 46.6674 31.1467 46.3017 31.8221 46.1535C32.4976 46.0054 33.1977 46.0814 33.8339 46.3721C34.4702 46.6627 35.014 47.1549 35.3966 47.7864C35.7792 48.4178 35.9834 49.1602 35.9834 49.9197C35.9834 50.9381 35.6166 51.9148 34.9636 52.635C34.3106 53.3551 33.4249 53.7597 32.5014 53.7597Z" fill="#FF9900"/>
</svg>
