<svg width="85" height="75" viewBox="0 0 85 75" fill="none" xmlns="http://www.w3.org/2000/svg">
  <path d="M8.82568 75H75.2376C82.0287 75 86.2621 67.6356 82.8666 61.7705L49.6606 4.39879C46.265 -1.46626 37.7982 -1.46626 34.4026 4.39879L1.1967 61.7705C-2.19886 67.6356 2.03456 75 8.82568 75ZM42.0316 44.1313C39.6062 44.1313 37.6218 42.1469 37.6218 39.7214V30.9018C37.6218 28.4764 39.6062 26.492 42.0316 26.492C44.457 26.492 46.4414 28.4764 46.4414 30.9018V39.7214C46.4414 42.1469 44.457 44.1313 42.0316 44.1313ZM46.4414 61.7705H37.6218V52.9509H46.4414V61.7705Z" fill="#EB4335"/>
</svg>