<svg width="37" height="36" viewBox="0 0 37 36" fill="none" xmlns="http://www.w3.org/2000/svg">
<g id="Group">
<path id="Vector" fill-rule="evenodd" clip-rule="evenodd" d="M2.66292 11.7025C0.944458 13.1934 0.944458 15.5963 0.944458 20.3986V22.0968C0.944458 28.5005 0.944458 31.7031 3.23574 33.6917C5.52506 35.6819 9.21222 35.6819 16.5846 35.6819H20.4946C27.867 35.6819 31.5542 35.6819 33.8435 33.6917C36.1348 31.7031 36.1348 28.5005 36.1348 22.0968V20.3986C36.1348 15.5963 36.1348 13.1934 34.4163 11.7025C32.6998 10.2098 29.9334 10.2098 24.4047 10.2098H12.6746C7.14577 10.2098 4.37942 10.2098 2.66292 11.7025ZM18.5396 23.7949C19.0581 23.7949 19.5554 23.616 19.922 23.2975C20.2886 22.9791 20.4946 22.5471 20.4946 22.0968C20.4946 21.6464 20.2886 21.2145 19.922 20.896C19.5554 20.5775 19.0581 20.3986 18.5396 20.3986C18.0211 20.3986 17.5238 20.5775 17.1572 20.896C16.7906 21.2145 16.5846 21.6464 16.5846 22.0968C16.5846 22.5471 16.7906 22.9791 17.1572 23.2975C17.5238 23.616 18.0211 23.7949 18.5396 23.7949ZM24.4047 22.0968C24.405 23.1507 24.0292 24.1787 23.3289 25.0394C22.6287 25.9001 21.6385 26.551 20.4946 26.9025V30.5875H16.5846V26.9025C15.5702 26.5915 14.6738 26.0442 13.9934 25.3205C13.313 24.5968 12.8748 23.7245 12.7266 22.799C12.5784 21.8736 12.726 20.9305 13.1532 20.073C13.5805 19.2155 14.2709 18.4765 15.1491 17.9368C16.0272 17.3972 17.0593 17.0776 18.1324 17.0131C19.2056 16.9486 20.2785 17.1415 21.2339 17.5709C22.1893 18.0003 22.9904 18.6496 23.5496 19.4478C24.1088 20.246 24.4046 21.1624 24.4047 22.0968Z" fill="#9747FF"/>
<path id="Vector_2" d="M27.3371 11.9079C27.6285 10.3897 27.4094 8.8308 26.7061 7.41812C26.0029 6.00545 24.8453 4.79902 23.3723 3.94357L22.6411 3.51904C20.7157 2.40066 18.4207 1.86254 16.1089 1.9874C13.7972 2.11227 11.5966 2.89322 9.84554 4.21018L8.11926 5.50756" stroke="#9747FF" stroke-width="2" stroke-linecap="round"/>
</g>
</svg>
