<svg width="18" height="17" viewBox="0 0 18 17" fill="none" xmlns="http://www.w3.org/2000/svg">
<path d="M10.5002 9.50001C10.5002 9.0333 10.5002 8.79995 10.591 8.62169C10.6709 8.46489 10.7984 8.3374 10.9552 8.25751C11.1334 8.16668 11.3668 8.16668 11.8335 8.16668H15.0002C15.4669 8.16668 15.7002 8.16668 15.8785 8.25751C16.0353 8.3374 16.1628 8.46489 16.2427 8.62169C16.3335 8.79995 16.3335 9.0333 16.3335 9.50001V10.1667C16.3335 10.6334 16.3335 10.8667 16.2427 11.045C16.1628 11.2018 16.0353 11.3293 15.8785 11.4092C15.7002 11.5 15.4669 11.5 15.0002 11.5H11.8335C11.3668 11.5 11.1334 11.5 10.9552 11.4092C10.7984 11.3293 10.6709 11.2018 10.591 11.045C10.5002 10.8667 10.5002 10.6334 10.5002 10.1667V9.50001Z" fill="#F7AE86"/>
<path d="M2.24351 15.485L2.62259 14.741L2.62259 14.741L2.24351 15.485ZM1.51515 14.7567L2.25914 14.3776L2.25914 14.3776L1.51515 14.7567ZM13.7568 15.485L13.3777 14.741L13.3777 14.741L13.7568 15.485ZM14.4852 14.7567L13.7412 14.3776L13.7412 14.3776L14.4852 14.7567ZM13.7568 4.18167L13.3777 4.92566L13.3777 4.92566L13.7568 4.18167ZM14.4852 4.91003L13.7412 5.28911L13.7412 5.28911L14.4852 4.91003ZM2.24351 4.18167L1.86443 3.43768H1.86443L2.24351 4.18167ZM1.51515 4.91003L0.771161 4.53095L1.51515 4.91003ZM10.9552 11.4092L11.3343 10.6652L10.9552 11.4092ZM10.591 11.045L11.335 10.6659L10.591 11.045ZM16.2427 11.045L15.4987 10.6659L16.2427 11.045ZM15.8785 11.4092L15.4994 10.6652L15.8785 11.4092ZM15.8785 8.25751L15.4994 9.0015L15.8785 8.25751ZM16.2427 8.62169L15.4987 9.00077L16.2427 8.62169ZM10.9552 8.25751L11.3343 9.0015L10.9552 8.25751ZM10.591 8.62169L11.335 9.00077L10.591 8.62169ZM2.69005 3.22473C2.26188 3.396 2.05362 3.88195 2.22488 4.31012C2.39615 4.7383 2.8821 4.94656 3.31027 4.77529L2.69005 3.22473ZM10.1907 1.12381L9.88056 0.348531L9.88056 0.348532L10.1907 1.12381ZM10.4985 4.00001C10.4985 4.46117 10.8723 4.83501 11.3335 4.83501C11.7947 4.83501 12.1685 4.46117 12.1685 4.00001H10.4985ZM4.00016 4.83501H12.0002V3.16501H4.00016V4.83501ZM12.0002 14.8317H4.00016V16.5017H12.0002V14.8317ZM2.1685 13V6.66668H0.498496V13H2.1685ZM13.8318 6.66668V8.37501H15.5018V6.66668H13.8318ZM13.8318 11.6563V13H15.5018V11.6563H13.8318ZM4.00016 14.8317C3.51967 14.8317 3.20953 14.831 2.9735 14.8117C2.74721 14.7933 2.66352 14.7619 2.62259 14.741L1.86443 16.229C2.18002 16.3898 2.50795 16.4493 2.8375 16.4762C3.15731 16.5023 3.54723 16.5017 4.00016 16.5017V14.8317ZM0.498496 13C0.498496 13.4529 0.497847 13.8429 0.523976 14.1627C0.550902 14.4922 0.61036 14.8202 0.771162 15.1357L2.25914 14.3776C2.23829 14.3367 2.20692 14.253 2.18843 14.0267C2.16915 13.7906 2.1685 13.4805 2.1685 13H0.498496ZM2.62259 14.741C2.4661 14.6613 2.33888 14.5341 2.25914 14.3776L0.771161 15.1357C1.01101 15.6065 1.39371 15.9892 1.86443 16.229L2.62259 14.741ZM12.0002 16.5017C12.4531 16.5017 12.843 16.5023 13.1628 16.4762C13.4924 16.4493 13.8203 16.3898 14.1359 16.229L13.3777 14.741C13.3368 14.7619 13.2531 14.7933 13.0268 14.8117C12.7908 14.831 12.4807 14.8317 12.0002 14.8317V16.5017ZM13.8318 13C13.8318 13.4805 13.8312 13.7906 13.8119 14.0267C13.7934 14.253 13.762 14.3367 13.7412 14.3776L15.2292 15.1357C15.39 14.8202 15.4494 14.4922 15.4763 14.1627C15.5025 13.8429 15.5018 13.4529 15.5018 13H13.8318ZM14.1359 16.229C14.6066 15.9892 14.9893 15.6065 15.2292 15.1357L13.7412 14.3776C13.6614 14.5341 13.5342 14.6613 13.3777 14.741L14.1359 16.229ZM12.0002 4.83501C12.4807 4.83501 12.7908 4.83566 13.0268 4.85495C13.2531 4.87343 13.3368 4.9048 13.3777 4.92566L14.1359 3.43768C13.8203 3.27688 13.4924 3.21742 13.1628 3.19049C12.843 3.16436 12.4531 3.16501 12.0002 3.16501V4.83501ZM15.5018 6.66668C15.5018 6.21375 15.5025 5.82383 15.4763 5.50402C15.4494 5.17446 15.39 4.84654 15.2292 4.53095L13.7412 5.28911C13.762 5.33004 13.7934 5.41373 13.8119 5.64001C13.8312 5.87604 13.8318 6.18619 13.8318 6.66668H15.5018ZM13.3777 4.92566C13.5342 5.00539 13.6614 5.13262 13.7412 5.28911L15.2292 4.53095C14.9893 4.06023 14.6066 3.67752 14.1359 3.43768L13.3777 4.92566ZM4.00016 3.16501C3.54723 3.16501 3.15731 3.16436 2.8375 3.19049C2.50795 3.21742 2.18002 3.27688 1.86443 3.43768L2.62259 4.92566C2.66352 4.9048 2.74721 4.87343 2.9735 4.85495C3.20953 4.83566 3.51967 4.83501 4.00016 4.83501V3.16501ZM2.1685 6.66668C2.1685 6.18619 2.16915 5.87604 2.18843 5.64001C2.20692 5.41373 2.23829 5.33004 2.25914 5.28911L0.771161 4.53095C0.61036 4.84654 0.550902 5.17446 0.523976 5.50402C0.497847 5.82383 0.498496 6.21375 0.498496 6.66668H2.1685ZM1.86443 3.43768C1.39371 3.67752 1.011 4.06023 0.771161 4.53095L2.25914 5.28911C2.33888 5.13262 2.46611 5.00539 2.62259 4.92566L1.86443 3.43768ZM11.8335 9.00168H15.0002V7.33168H11.8335V9.00168ZM15.4985 9.50001V10.1667H17.1685V9.50001H15.4985ZM15.0002 10.665H11.8335V12.335H15.0002V10.665ZM11.3352 10.1667V9.50001H9.66516V10.1667H11.3352ZM11.8335 10.665C11.5864 10.665 11.4512 10.6644 11.3542 10.6564C11.2668 10.6493 11.2861 10.6406 11.3343 10.6652L10.5761 12.1532C10.8025 12.2686 11.0276 12.3053 11.2182 12.3209C11.399 12.3357 11.6139 12.335 11.8335 12.335V10.665ZM9.66516 10.1667C9.66516 10.3863 9.66451 10.6012 9.67929 10.782C9.69486 10.9726 9.73161 11.1976 9.847 11.4241L11.335 10.6659C11.3595 10.7141 11.3509 10.7333 11.3437 10.646C11.3358 10.5489 11.3352 10.4138 11.3352 10.1667H9.66516ZM11.3343 10.6652C11.3346 10.6654 11.3348 10.6656 11.335 10.6659L9.847 11.4241C10.0069 11.738 10.2622 11.9932 10.5761 12.1532L11.3343 10.6652ZM15.4985 10.1667C15.4985 10.4138 15.4978 10.5489 15.4899 10.646C15.4828 10.7333 15.4741 10.7141 15.4987 10.6659L16.9867 11.4241C17.102 11.1976 17.1388 10.9726 17.1544 10.782C17.1691 10.6012 17.1685 10.3863 17.1685 10.1667H15.4985ZM15.0002 12.335C15.2197 12.335 15.4346 12.3357 15.6155 12.3209C15.8061 12.3053 16.0311 12.2686 16.2576 12.1532L15.4994 10.6652C15.5476 10.6406 15.5668 10.6493 15.4795 10.6564C15.3824 10.6644 15.2473 10.665 15.0002 10.665V12.335ZM15.4987 10.6659C15.4988 10.6656 15.4991 10.6654 15.4994 10.6652L16.2576 12.1532C16.5715 11.9932 16.8267 11.738 16.9867 11.4241L15.4987 10.6659ZM15.0002 9.00168C15.2473 9.00168 15.3824 9.00233 15.4795 9.01026C15.5668 9.01739 15.5476 9.02606 15.4994 9.0015L16.2576 7.51352C16.0311 7.39813 15.8061 7.36138 15.6155 7.34581C15.4346 7.33103 15.2197 7.33168 15.0002 7.33168V9.00168ZM17.1685 9.50001C17.1685 9.28044 17.1691 9.06553 17.1544 8.88469C17.1388 8.69409 17.102 8.46907 16.9867 8.2426L15.4987 9.00077C15.4741 8.95257 15.4828 8.93335 15.4899 9.02068C15.4978 9.11775 15.4985 9.25288 15.4985 9.50001H17.1685ZM15.4994 9.0015C15.4991 9.00134 15.4988 9.00108 15.4987 9.00077L16.9867 8.2426C16.8267 7.92869 16.5715 7.67347 16.2576 7.51352L15.4994 9.0015ZM11.8335 7.33168C11.6139 7.33168 11.399 7.33103 11.2182 7.34581C11.0276 7.36138 10.8025 7.39813 10.5761 7.51352L11.3343 9.0015C11.2861 9.02606 11.2668 9.01739 11.3542 9.01026C11.4512 9.00233 11.5864 9.00168 11.8335 9.00168V7.33168ZM11.3352 9.50001C11.3352 9.25288 11.3358 9.11775 11.3437 9.02068C11.3509 8.93335 11.3595 8.95257 11.335 9.00077L9.847 8.2426C9.73161 8.46907 9.69486 8.69409 9.67929 8.88469C9.66451 9.06553 9.66516 9.28044 9.66516 9.50001H11.3352ZM10.5761 7.51352C10.2622 7.67347 10.0069 7.92869 9.847 8.2426L11.335 9.00077C11.3348 9.00108 11.3346 9.00134 11.3343 9.0015L10.5761 7.51352ZM3.31027 4.77529L10.5008 1.89909L9.88056 0.348532L2.69005 3.22473L3.31027 4.77529ZM10.4985 1.89754V4.00001H12.1685V1.89754H10.4985ZM10.5008 1.89909C10.5036 1.89796 10.5042 1.8981 10.5028 1.89827C10.5016 1.89842 10.5002 1.89843 10.499 1.89827C10.4968 1.89801 10.4973 1.89762 10.4992 1.89892C10.5012 1.90022 10.501 1.90085 10.4999 1.89893C10.4993 1.89781 10.4988 1.8965 10.4985 1.89533C10.4982 1.89403 10.4985 1.89449 10.4985 1.89754H12.1685C12.1685 0.717253 10.9764 -0.0898156 9.88056 0.348531L10.5008 1.89909Z" fill="#F58D56"/>
</svg>
